<svg xmlns="http://www.w3.org/2000/svg" viewBox="0 0 260.83 47"><defs><style>.cls-1{fill:#44d62c;}.cls-2{fill:#fff;}</style></defs><title>razer-blackwidow-elite-logo</title><g id="Layer_1" data-name="Layer 1"><polygon class="cls-1" points="29.88 14.65 26.62 14.65 29.48 9.69 29.88 8.99 29.08 8.99 25.41 8.99 25.41 9.69 28.67 9.69 25.81 14.65 25.4 15.35 26.21 15.35 29.48 15.35 29.88 14.65"/><polygon class="cls-1" points="38.76 8.99 34.31 8.99 34.31 9.69 38.35 9.69 38.76 8.99"/><polygon class="cls-1" points="38.76 11.82 34.31 11.82 34.31 12.52 38.35 12.52 38.76 11.82"/><polygon class="cls-1" points="38.76 14.65 34.31 14.65 34.31 15.35 38.35 15.35 38.76 14.65"/><path class="cls-1" d="M47.66,11v-.4A1.57,1.57,0,0,0,46.09,9H43.21v6.36h.7V12.52h1.31l1.63,2.83h.81L46,12.52h.06A1.56,1.56,0,0,0,47.66,11ZM43.91,9.69h2.18a.87.87,0,0,1,.87.87V11a.86.86,0,0,1-.87.86H43.91Z"/><path class="cls-1" d="M12.05,11v-.4A1.57,1.57,0,0,0,10.48,9H7.6v6.36h.7V12.52H9.61l1.63,2.83h.81l-1.63-2.83h.06A1.56,1.56,0,0,0,12.05,11ZM8.3,9.69h2.18a.87.87,0,0,1,.87.87V11a.86.86,0,0,1-.87.86H8.3Z"/><polygon class="cls-1" points="16.9 15.35 18.72 10.86 20.53 15.35 21.29 15.35 19.09 9.93 18.72 8.99 18.34 9.93 16.15 15.35 16.9 15.35"/><polygon class="cls-1" points="48.08 9.26 48.08 9.13 49.02 9.13 49.02 9.26 48.63 9.26 48.63 10.44 48.48 10.44 48.48 9.26 48.08 9.26"/><polygon class="cls-1" points="49.39 10.44 49.39 9.13 49.66 9.13 50.03 10.24 50.4 9.13 50.66 9.13 50.66 10.44 50.52 10.44 50.52 9.29 50.49 9.29 50.11 10.39 49.95 10.39 49.56 9.29 49.54 9.29 49.54 10.44 49.39 10.44"/><path class="cls-2" d="M14,20.13c3.41,0,5.18,1.36,5.18,4.42,0,2.35-.91,3.49-2.32,4.09a3.9,3.9,0,0,1,2.9,4.17c0,3.74-2.12,4.88-5.38,4.88H7.75V20.13ZM9.32,21.52v6.54h4.85c2.4,0,3.41-1.14,3.41-3.41s-1.19-3.13-3.64-3.13Zm0,7.91V36.3h5c2.27,0,3.81-.76,3.81-3.54,0-3.06-2.65-3.33-4-3.33Z"/><path class="cls-2" d="M25.11,37.69V20.13h1.57V36.27h8v1.42Z"/><path class="cls-2" d="M43.66,20.13h3.67l5,17.56H50.81L49.4,32.84H41.56l-1.39,4.85H38.61ZM41.94,31.45H49l-2.86-10H44.8Z"/><path class="cls-2" d="M57.17,37.69V20.13h6.39c4.83,0,6.25,3.79,6.25,8.54s-1.37,9-6.25,9Zm6.39-16.15H58.74V36.3h4.82c3.69,0,4.63-3.82,4.63-7.63S67.25,21.54,63.56,21.54Z"/><path class="cls-2" d="M75.23,20.13H85.77v1.41h-9v6.52h7.45v1.39H76.8V36.3h9v1.39H75.23Z"/><path class="cls-2" d="M108.48,21.69s-3.48-.43-5-.43c-2.63,0-4.07.91-4.07,3.09,0,2.6,1.34,3,4.45,3.58,3.44.69,5.08,1.52,5.08,4.63,0,3.89-2,5.33-5.51,5.33A53.57,53.57,0,0,1,98,37.41l.17-1.34s3.47.43,5.26.43c2.63,0,4-1.14,4-3.84,0-2.2-1.14-2.75-4.07-3.29-3.56-.68-5.46-1.44-5.46-4.92s2.17-4.58,5.56-4.58a43.6,43.6,0,0,1,5.18.48Z"/><path class="cls-2" d="M113,20.13h12.64v1.41h-5.51V37.69h-1.57V21.54H113Z"/><path class="cls-2" d="M130.28,20.13h10.54v1.41h-9v6.52h7.45v1.39h-7.45V36.3h9v1.39H130.28Z"/><path class="cls-2" d="M150.2,20.13h3.66l5,17.56h-1.54l-1.42-4.85H148.1l-1.39,4.85h-1.57Zm-1.72,11.32h7.07l-2.85-10h-1.37Z"/><path class="cls-2" d="M163.71,37.69V20.13h1.56V36.27h8v1.42Z"/><path class="cls-2" d="M174.2,20.13h12.63v1.41h-5.51V37.69h-1.56V21.54H174.2Z"/><path class="cls-2" d="M202.58,29.58h-9.52v8.11h-1.57V20.13h1.57v8.06h9.52V20.13h1.54V37.69h-1.54Z"/><path class="cls-2" d="M211,20.18h.57V27H211V20.84L209.29,22l-.28-.47Z"/><path class="cls-2" d="M214.55,20.35a8.19,8.19,0,0,1,1.89-.25c1.47,0,2,.56,2,1.69a1.76,1.76,0,0,1-1,1.56A1.52,1.52,0,0,1,218.61,25a1.8,1.8,0,0,1-2.06,2,10.8,10.8,0,0,1-2.1-.25l.05-.5a11.77,11.77,0,0,0,2,.21A1.29,1.29,0,0,0,218,25.07a1.31,1.31,0,0,0-1.4-1.41h-1.31v-.52h1.3a1.38,1.38,0,0,0,1.25-1.34c0-.8-.37-1.16-1.4-1.16a9.55,9.55,0,0,0-1.81.2Z"/></g></svg>